<svg width="300" height="300" viewBox="0 0 300 300" fill="none" xmlns="http://www.w3.org/2000/svg">
<circle cx="150" cy="150" r="150" fill="#1F50FF"/>
<path d="M23.2516 93.1835C23.4028 92.9441 23.7152 92.7541 24.3604 92.7227C25.0061 92.6913 25.8872 92.8275 27.0103 93.1375C29.2503 93.7558 32.302 95.0211 36.0553 96.7538C39.4768 98.3333 43.4569 100.289 47.9032 102.475C48.3268 102.683 48.7547 102.893 49.1867 103.105C54.1505 105.544 59.6573 108.238 65.5732 110.986C89.2214 121.973 119.479 133.871 147.91 133.871C167.179 133.871 191.572 133.245 210.182 125.966C228.159 118.934 243.443 109.233 254.461 102.073C255.084 101.668 255.693 101.271 256.289 100.883C260.965 97.8388 264.763 95.3664 267.576 93.8956C269.171 93.062 270.388 92.5841 271.24 92.4797C271.661 92.4281 271.94 92.4746 272.122 92.5661C272.288 92.6493 272.425 92.7951 272.515 93.072C273.252 95.3246 273.716 99.0385 273.926 103.474C274.135 107.894 274.091 112.986 273.834 117.968C273.576 122.95 273.105 127.812 272.463 131.773C272.142 133.754 271.779 135.503 271.381 136.925C270.98 138.358 270.554 139.419 270.124 140.055C269.928 140.345 269.508 140.774 268.836 141.334C268.173 141.885 267.295 142.539 266.215 143.279C264.055 144.76 261.106 146.574 257.489 148.598C250.256 152.644 240.374 157.516 228.841 162.213C205.767 171.61 176.131 180.29 147.91 180.29C119.691 180.29 90.5429 171.446 67.9193 161.966C56.6113 157.228 46.9438 152.336 39.8505 148.319C36.3035 146.311 33.4036 144.524 31.266 143.086C30.1969 142.368 29.3222 141.739 28.6542 141.215C27.978 140.686 27.5386 140.283 27.3186 140.017C26.8663 139.468 26.3721 138.443 25.8705 136.992C25.3744 135.556 24.8879 133.754 24.4299 131.698C23.5143 127.586 22.7201 122.487 22.1903 117.321C21.6604 112.154 21.3966 106.934 21.5376 102.58C21.6082 100.403 21.7797 98.4516 22.0666 96.8368C22.3556 95.211 22.7541 93.9714 23.2516 93.1835Z" fill="white" stroke="#1F50FF"/>
<path d="M185.951 152.155L166.564 119.097C166.543 119.107 166.52 119.118 166.496 119.128C166.212 119.259 165.791 119.454 165.245 119.709C164.152 120.218 162.557 120.969 160.548 121.932C156.529 123.859 150.854 126.636 144.233 130.039C130.988 136.845 113.964 146.147 98.8259 156.14C95.8003 158.137 93.0188 159.965 90.4535 161.652C67.2827 176.882 61.7431 180.524 53.1176 192.377C50.7775 195.593 49.2089 200.225 48.2843 205.412C47.3614 210.589 47.0891 216.267 47.3076 221.528C47.5262 226.793 48.235 231.612 49.2602 235.077C49.7737 236.813 50.3581 238.179 50.9808 239.089C51.612 240.012 52.2131 240.371 52.7497 240.338C53.0437 240.319 53.4544 240.19 53.9954 239.914C54.53 239.642 55.1599 239.245 55.8827 238.727C57.3283 237.692 59.108 236.203 61.1815 234.35C64.318 231.548 68.0966 227.941 72.3666 223.864C73.7428 222.551 75.1699 221.188 76.6431 219.789C88.7164 208.316 103.843 194.359 119.045 184.325C134.24 174.295 151.125 166.2 164.204 160.614C170.746 157.82 176.338 155.653 180.296 154.183C182.276 153.449 183.846 152.888 184.923 152.512C185.342 152.365 185.687 152.246 185.951 152.155Z" fill="white" stroke="#1F50FF"/>
<path d="M105.559 125.389C105.55 125.384 105.54 125.38 105.531 125.376C106.172 125.223 106.988 125.042 107.942 124.838C111.002 124.187 115.441 123.317 120.003 122.446C124.564 121.576 129.244 120.706 132.784 120.053C134.554 119.727 136.039 119.455 137.081 119.264C137.603 119.169 138.013 119.094 138.293 119.044L138.614 118.985L138.641 118.98L138.685 118.99C138.769 119.007 138.895 119.034 139.06 119.07C139.392 119.142 139.882 119.25 140.518 119.394C141.789 119.683 143.639 120.119 145.955 120.704C150.587 121.874 157.079 123.643 164.517 126.036C179.401 130.824 198.041 138.104 213.146 148.074C243.406 168.049 252.573 182.776 256.622 192.59C257.606 194.976 258.191 199.053 258.406 203.912C258.62 208.748 258.465 214.287 258.009 219.552C257.553 224.819 256.796 229.789 255.813 233.494C255.321 235.349 254.778 236.862 254.2 237.933C253.608 239.03 253.042 239.543 252.556 239.63C252.08 239.715 251.356 239.415 250.302 238.51C249.277 237.631 248.055 236.283 246.626 234.544C244.988 232.551 243.113 230.089 240.983 227.293C239.388 225.199 237.65 222.917 235.762 220.504C226.974 209.274 215.058 195.374 199.826 185.319C184.666 175.312 161.725 160.223 142.097 147.635C132.283 141.342 123.295 135.671 116.52 131.573C113.133 129.525 110.294 127.867 108.18 126.719C107.124 126.146 106.242 125.696 105.559 125.389Z" fill="white" stroke="#1F50FF"/>
<path d="M140.128 199.493L140.25 199.521L140.329 199.6C140.335 199.605 140.349 199.615 140.372 199.628C140.424 199.659 140.524 199.708 140.684 199.752C141.004 199.84 141.575 199.91 142.501 199.761C144.36 199.461 147.613 198.285 153.05 194.695L153.115 194.653L153.179 194.611L153.243 194.568L153.307 194.526L153.371 194.484L153.436 194.441L153.5 194.399L153.564 194.356L153.629 194.314L153.693 194.271L153.758 194.228L153.823 194.186L153.887 194.143L153.952 194.1L154.017 194.058L154.081 194.015L154.146 193.972L154.211 193.929L154.276 193.886L154.341 193.844L154.406 193.801L154.471 193.758L154.536 193.715L154.601 193.672L154.666 193.629L154.731 193.586L154.796 193.543L154.862 193.5L154.927 193.457L154.992 193.414L155.058 193.371L155.123 193.327L155.188 193.284L155.254 193.241L155.319 193.198L155.385 193.155L155.45 193.111L155.516 193.068L155.581 193.025L155.647 192.982L155.712 192.938L155.778 192.895L155.843 192.852L155.909 192.808L155.975 192.765L156.041 192.722L156.106 192.678L156.172 192.635L156.238 192.591L156.304 192.548L156.369 192.505L156.435 192.461L156.501 192.418L156.567 192.374L156.633 192.331L156.699 192.287L156.764 192.244L156.83 192.2L156.896 192.157L156.962 192.113L157.028 192.07L157.094 192.026L157.16 191.983L157.226 191.939L157.292 191.896L157.358 191.852L157.424 191.808L157.49 191.765L157.556 191.721L157.622 191.678L157.688 191.634L157.754 191.591L157.82 191.547L157.886 191.503L157.952 191.46L158.018 191.416L158.084 191.373L158.15 191.329L158.216 191.286L158.282 191.242L158.348 191.198L158.414 191.155L158.48 191.111L158.546 191.068L158.612 191.024L158.678 190.981L158.744 190.937L158.81 190.893L158.876 190.85L158.942 190.806L159.008 190.763L159.074 190.719L159.14 190.676L159.206 190.632L159.272 190.589L159.337 190.545L159.403 190.502L159.469 190.458L159.535 190.415L159.601 190.372L159.667 190.328L159.732 190.285L159.798 190.241L159.864 190.198L159.93 190.154L159.995 190.111L160.061 190.068L160.127 190.024L160.192 189.981L160.258 189.938L160.323 189.894L160.389 189.851L160.455 189.808L160.52 189.765L160.586 189.721L160.651 189.678L160.716 189.635L160.782 189.592L160.847 189.549L160.913 189.506L160.978 189.462L161.043 189.419L161.108 189.376L161.174 189.333L161.239 189.29L161.304 189.247L161.369 189.204L161.434 189.161L161.499 189.118L161.564 189.075L161.629 189.033L161.694 188.99L161.759 188.947L161.824 188.904L161.889 188.861L161.953 188.819L162.018 188.776L162.083 188.733L162.147 188.69L162.212 188.648L162.277 188.605L162.341 188.563L162.406 188.52L162.47 188.478L162.534 188.435L162.599 188.393L162.663 188.35L162.727 188.308L162.791 188.265L162.855 188.223L162.919 188.181L162.983 188.139L163.047 188.096L163.111 188.054L163.175 188.012L163.239 187.97L163.303 187.928L163.366 187.886L163.43 187.844L163.494 187.802L163.557 187.76L163.621 187.718L163.747 187.634L163.874 187.551L163.937 187.509L164 187.468L164.126 187.384L164.252 187.301L164.314 187.26L164.377 187.219L164.502 187.136L164.627 187.054L164.752 186.971L164.814 186.93L164.876 186.889L164.938 186.848L165 186.807L165.124 186.726L165.247 186.644L165.37 186.563L165.432 186.522L165.493 186.482L169.221 184.021L172.437 181.898L172.482 181.868L172.527 181.839L172.572 181.809L172.617 181.779L172.662 181.75L172.706 181.721L172.75 181.692L172.794 181.663L172.838 181.634L172.882 181.605L172.925 181.576L172.968 181.548L173.011 181.519L173.054 181.491L173.097 181.462L173.14 181.434L173.182 181.406L173.224 181.378L173.266 181.351L173.308 181.323L173.35 181.296L173.392 181.268L173.433 181.241L173.474 181.214L173.515 181.187L173.556 181.16L173.596 181.133L173.637 181.106L173.677 181.08L173.717 181.053L173.757 181.027L173.796 181.001L173.836 180.975L173.875 180.949L173.914 180.923L173.953 180.898L173.991 180.872L174.03 180.847L174.068 180.822L174.106 180.796L174.144 180.771L174.182 180.747L174.219 180.722L174.256 180.697L174.294 180.673L174.33 180.648L174.367 180.624L174.404 180.6L174.44 180.576L174.476 180.552L174.512 180.529L174.547 180.505L174.583 180.482L174.618 180.458L174.653 180.435L174.688 180.412L174.723 180.39L174.757 180.367L174.791 180.344L174.825 180.322L174.859 180.299L174.893 180.277L174.926 180.255L174.959 180.233L174.992 180.212L175.025 180.19L175.057 180.169L175.089 180.147L175.122 180.126L175.153 180.105L175.185 180.084L175.216 180.064L175.248 180.043L175.279 180.022L175.309 180.002L175.34 179.982L175.37 179.962L175.4 179.942L175.43 179.922L175.46 179.903L175.489 179.883L175.518 179.864L175.547 179.845L175.576 179.826L175.605 179.807L175.633 179.789L175.661 179.77L175.689 179.752L175.716 179.734L175.744 179.715L175.771 179.698L175.798 179.68L175.824 179.662L175.851 179.645L175.877 179.627L175.903 179.61L175.929 179.593L175.954 179.577L175.979 179.56L176.004 179.543L176.029 179.527L176.054 179.511L176.078 179.495L176.102 179.479L176.126 179.463L176.15 179.448L176.173 179.432L176.196 179.417L176.219 179.402L176.241 179.387L176.264 179.372L176.286 179.358L176.308 179.343L176.329 179.329L176.351 179.315L176.372 179.301L176.393 179.287L176.413 179.274L176.434 179.26L176.454 179.247L176.474 179.234L176.493 179.221L176.512 179.208L176.532 179.195L176.55 179.183L176.569 179.171L176.587 179.159L176.605 179.147L176.623 179.135L176.641 179.123L176.658 179.112L176.675 179.101L176.692 179.09L176.708 179.079L176.725 179.068L176.741 179.057L176.756 179.047L176.772 179.037L176.777 179.033L165.879 157.909C165.77 157.961 165.638 158.024 165.485 158.097C164.981 158.34 164.247 158.694 163.332 159.143C161.503 160.039 158.95 161.309 156.056 162.804C150.264 165.797 143.121 169.683 137.679 173.276C135.183 174.923 132.761 176.487 130.496 177.95C127.785 179.7 125.299 181.306 123.181 182.735C121.242 184.044 119.632 185.191 118.462 186.15C117.877 186.63 117.412 187.054 117.074 187.421C116.725 187.799 116.554 188.072 116.495 188.245L116.05 188.085L116.495 188.245C116.316 188.768 116.415 189.336 116.874 189.993C117.338 190.659 118.13 191.345 119.186 192.033C121.292 193.404 124.313 194.693 127.428 195.804C130.537 196.913 133.712 197.835 136.113 198.481C137.312 198.804 138.317 199.057 139.022 199.229C139.374 199.316 139.651 199.382 139.84 199.426C139.935 199.448 140.007 199.465 140.055 199.476L140.11 199.489L140.124 199.492L140.127 199.493L140.128 199.493C140.128 199.493 140.128 199.493 140.009 200.005L140.128 199.493Z" fill="white" stroke="#1F50FF"/>
<path d="M158.752 192.144L165.424 187.693L165.424 187.704L165.424 187.742L165.424 187.78L165.424 187.818L165.424 187.855L165.424 187.893L165.424 187.93L165.424 187.968L165.424 188.005L165.424 188.042L165.424 188.079L165.424 188.116L165.424 188.152L165.424 188.189L165.424 188.226L165.424 188.262L165.424 188.298L165.424 188.335L165.424 188.371L165.424 188.407L165.424 188.443L165.424 188.478L165.424 188.514L165.424 188.55L165.424 188.585L165.424 188.621L165.424 188.656L165.424 188.691L165.424 188.726L165.424 188.761L165.424 188.796L165.424 188.831L165.424 188.865L165.424 188.9L165.424 188.934L165.424 188.969L165.424 189.003L165.424 189.037L165.424 189.071L165.424 189.105L165.424 189.139L165.424 189.173L165.424 189.206L165.424 189.24L165.424 189.273L165.424 189.307L165.424 189.34L165.424 189.373L165.424 189.406L165.424 189.439L165.424 189.472L165.424 189.505L165.424 189.538L165.424 189.57L165.424 189.603L165.424 189.635L165.424 189.668L165.424 189.7L165.424 189.732L165.424 189.764L165.424 189.796L165.424 189.828L165.424 189.86L165.424 189.891L165.424 189.923L165.424 189.955L165.424 189.986L165.424 190.017L165.424 190.049L165.424 190.08L165.424 190.111L165.424 190.142L165.424 190.173L165.424 190.204L165.424 190.234L165.424 190.265L165.424 190.296L165.424 190.326L165.424 190.357L165.424 190.387L165.424 190.417L165.424 190.447L165.424 190.477L165.424 190.507L165.424 190.537L165.424 190.567L165.424 190.597L165.424 190.627L165.424 190.656L165.424 190.686L165.424 190.715L165.424 190.745L165.424 190.774L165.424 190.803L165.424 190.832L165.424 190.861L165.424 190.89L165.424 190.919L165.424 190.948L165.424 190.977L165.424 191.005L165.424 191.034L165.424 191.062L165.424 191.091L165.424 191.119L165.424 191.147L165.424 191.176L165.424 191.204L165.424 191.232L165.424 191.26L165.424 191.288L165.424 191.316L165.424 191.343L165.424 191.371L165.424 191.399L165.424 191.426L165.424 191.454L165.424 191.481L165.424 191.509L165.424 191.536L165.424 191.563L165.424 191.59L165.424 191.618L165.424 191.645L165.424 191.671L165.424 191.698L165.424 191.725L165.424 191.752L165.424 191.779L165.424 191.805L165.424 191.832L165.424 191.858L165.424 191.885L165.424 191.911L165.424 191.938L165.424 191.964L165.424 191.99L165.424 192.016L165.424 192.042L165.424 192.068L165.424 192.094L165.424 192.12L165.424 192.146L165.424 192.172L165.424 192.197L165.424 192.223L165.424 192.249L165.424 192.274L165.424 192.3L165.424 192.325L165.424 192.35L165.424 192.376L165.424 192.401L165.424 192.426L165.424 192.451L165.424 192.476L165.424 192.501L165.424 192.526L165.424 192.551L165.424 192.576L165.424 192.601L165.424 192.626L165.424 192.65L165.424 192.675L165.424 192.7L165.424 192.724L165.424 192.749L165.424 192.773L165.424 192.798L165.424 192.822L165.424 192.846L165.424 192.871L165.424 192.895L165.424 192.919L165.424 192.943L165.424 192.967L165.424 192.991L165.424 193.015L165.424 193.039L165.424 193.063L165.424 193.087L165.424 193.111L165.424 193.134L165.424 193.158L165.424 193.182L165.424 193.205L165.424 193.229L165.424 193.252L165.424 193.276L165.424 193.299L165.424 193.323L165.424 193.346L165.424 193.369L165.424 193.393L165.424 193.416L165.424 193.439L165.424 193.462L165.424 193.485L165.424 193.508L165.424 193.531L165.424 193.554L165.424 193.577L165.424 193.6L165.424 193.623L165.424 193.646L165.424 193.669L165.424 193.692L165.424 193.714L165.424 193.737L165.424 193.76L165.424 193.782L165.424 193.805L165.424 193.828L165.424 193.85L165.424 193.873L165.424 193.895L165.424 193.918L165.424 193.94L165.424 193.962L165.424 193.985L165.424 194.007L165.424 194.029L165.424 194.052L165.424 194.074L165.424 194.096L165.424 194.118L165.424 194.14L165.424 194.162L165.424 194.185L165.424 194.207L165.424 194.229L165.424 194.251L165.424 194.273L165.424 194.295L165.424 194.317L165.424 194.338L165.424 194.36L165.424 194.382L165.424 194.404L165.424 194.426L165.424 194.448L165.424 194.469L165.424 194.491L165.424 194.513L165.424 194.535L165.424 194.556L165.424 194.578L165.424 194.599L165.424 194.621L165.424 194.643L165.424 194.664L165.424 194.686L165.424 194.707L165.424 194.729L165.424 194.75L165.424 194.772L165.424 194.793L165.424 194.815L165.424 194.836L165.424 194.858L165.424 194.879L165.424 194.9L165.424 194.922L165.424 194.943L165.424 194.965L165.424 194.986L165.424 195.007L165.424 195.028L165.424 195.05L165.424 195.071L165.424 195.092L165.424 195.114L165.424 195.135L165.424 195.156L165.424 195.177L165.424 195.199L165.424 195.22L165.424 195.241L165.424 195.262L165.424 195.283L165.424 195.304L165.424 195.326L165.424 195.347L165.424 195.368L165.424 195.389L165.424 195.41L165.424 195.431L165.424 195.452L165.424 195.474L165.424 195.495L165.424 195.516L165.424 195.537L165.424 195.558L165.424 195.579L165.424 195.6L165.424 195.621L165.424 195.642L165.424 195.663L165.424 195.685L165.424 195.706L165.424 195.727L165.424 195.748L165.424 195.769L165.424 195.79L165.424 195.811L165.424 195.832L165.424 195.853L165.424 195.874L165.424 195.895L165.424 195.917L165.424 195.938L165.424 195.959L165.424 195.98L165.424 196.001L165.424 196.022L165.424 196.043L165.424 196.064L165.424 196.085L165.424 196.107L165.424 196.128L165.424 196.149L165.424 196.17L165.424 196.191L165.424 196.212L165.424 196.234L165.424 196.255L165.424 196.276L165.424 196.297L165.424 196.318L165.424 196.34L165.424 196.361L165.424 196.382L165.424 196.403L165.424 196.425L165.424 196.446L165.424 196.467L165.424 196.489L165.424 196.51L165.424 196.531L165.424 196.553L165.424 196.574L165.424 196.595L165.424 196.617L165.424 196.638L165.424 196.66L165.424 196.681L165.424 196.703L165.424 196.724L165.424 196.746L165.424 196.767L165.424 196.789L165.424 196.81L165.424 196.832L165.424 196.853L165.424 196.875L165.424 196.897L165.424 196.918L165.424 196.94L165.424 196.962L165.424 196.983L165.424 197.005L165.424 197.027L165.424 197.049L165.424 197.07L165.424 197.092L165.424 197.114L165.424 197.136L165.424 197.158L165.424 197.18L165.424 197.202L165.424 197.224L165.424 197.246L165.424 197.268L165.424 197.29L165.424 197.312L165.424 197.334L165.424 197.356L165.424 197.378L165.424 197.401L165.424 197.423L165.424 197.445L165.424 197.467L165.424 197.49L165.424 197.512L165.424 197.534L165.424 197.557L165.424 197.579L165.424 197.602L165.424 197.624L165.424 197.647L165.424 197.669L165.424 197.692L165.424 197.715L165.424 197.737L165.424 197.76L165.424 197.783L165.424 197.805L165.424 197.828L165.424 197.851L165.424 197.874L165.424 197.897L165.424 197.92L165.424 197.943L165.424 197.966L165.424 197.989L165.424 198.012L165.424 198.035L165.424 198.058L165.424 198.082L165.424 198.105L165.424 198.128L165.424 198.152L165.424 198.175L165.424 198.198L165.424 198.222L165.424 198.245L165.424 198.269L165.424 198.293L165.424 198.316L165.424 198.34L165.424 198.364L165.424 198.387L165.424 198.411L165.424 198.435L165.424 198.459L165.424 198.483L165.424 198.507L165.424 198.531L165.424 198.555L165.424 198.579L165.424 198.604L165.424 198.628L165.424 198.652L165.424 198.677L165.424 198.701L165.424 198.725L165.424 198.75L165.424 198.774L165.424 198.799L165.424 198.824L165.424 198.848L165.424 198.873L165.424 198.886L158.752 192.144ZM166.424 186.799L166.424 186.759L166.424 186.708L166.424 186.657L166.424 186.606L166.424 186.555L166.424 186.503L166.424 186.452L166.424 186.401L166.424 186.35L166.424 186.299L166.424 186.247L166.424 186.196L166.424 186.144L166.424 186.093L166.424 186.042L166.424 185.99L166.424 185.938L166.424 185.887L166.424 185.835L166.424 185.783L166.424 185.732L166.424 185.68L166.424 185.628L166.424 185.576L166.424 185.524L166.424 185.472L166.424 185.42L166.424 185.368L166.424 185.316L166.424 185.264L166.424 185.212L166.424 185.16L166.424 185.108L166.424 185.056L166.424 185.003L166.424 184.951L166.424 184.898L166.424 184.846L166.424 184.794L166.424 184.741L166.424 184.689L166.424 184.636L166.424 184.583L166.424 184.531L166.424 184.478L166.424 184.425L166.424 184.373L166.424 184.32L166.424 184.267L166.424 184.214L166.424 184.161L166.424 184.108L166.424 184.055L166.424 184.002L166.424 183.949L166.424 183.896L166.424 183.843L166.424 183.789L166.424 183.736L166.424 183.683L166.424 183.63L166.424 183.576L166.424 183.523L166.424 183.469L166.424 183.416L166.424 183.362L166.424 183.309L166.424 183.255L166.424 183.202L166.424 183.148L166.424 183.094L166.424 183.041L166.424 182.987L166.424 182.933L166.424 182.879L166.424 182.825L166.424 182.771L166.424 182.717L166.424 182.663L166.424 182.609L166.424 182.555L166.424 182.501L166.424 182.447L166.424 182.393L166.424 182.339L166.424 182.284L166.424 182.23L166.424 182.176L166.424 182.121L166.424 182.067L166.424 182.012L166.424 181.958L166.424 181.903L166.424 181.849L166.424 181.794L166.424 181.74L166.424 181.685L166.424 181.63L166.424 181.576L166.424 181.521L166.424 181.466L166.424 181.411L166.424 181.356L166.424 181.301L166.424 181.246L166.424 181.191L166.424 181.136L166.424 181.081L166.424 181.026L166.424 180.971L166.424 180.916L166.424 180.861L166.424 180.806L166.424 180.75L166.424 180.695L166.424 180.64L166.424 180.584L166.424 180.529L166.424 180.474L166.424 180.418L166.424 180.363L166.424 180.307L166.424 180.251L166.424 180.196L166.424 180.14L166.424 180.085L166.424 180.029L166.424 179.973L166.424 179.917L166.424 179.861L166.424 179.806L166.424 179.75L166.424 179.694L166.424 179.638L166.424 179.582L166.424 179.526L166.424 179.47L166.424 179.414L166.424 179.358L166.424 179.302L166.424 179.245L166.424 179.189L166.424 179.133L166.424 179.077L166.424 179.02L166.424 178.964L166.424 178.908L166.424 178.851L166.424 178.795L166.424 178.738L166.424 178.682L166.424 178.625L166.424 178.569L166.424 178.512L166.424 178.455L166.424 178.399L166.424 178.342L166.424 178.285L166.424 178.228L166.424 178.172L166.424 178.115L166.424 178.058L166.424 178.001L166.424 177.944L166.424 177.887L166.424 177.83L166.424 177.773L166.424 177.716L166.424 177.659L166.424 177.602L166.424 177.545L166.424 177.488L166.424 177.43L166.424 177.373L166.424 177.316L166.424 177.259L166.424 177.201L166.424 177.144L166.424 177.087L166.424 177.029L166.424 176.972L166.424 176.914L166.424 176.857L166.424 176.799L166.424 176.741L166.424 176.684L166.424 176.626L166.424 176.569L166.424 176.511L166.424 176.453L166.424 176.395L166.424 176.338L166.424 176.28L166.424 176.222L166.424 176.164L166.424 176.106L166.424 176.048L166.424 175.99L166.424 175.932L166.424 175.874L166.424 175.816L166.424 175.758L166.424 175.7L166.424 175.642L166.424 175.584L166.424 175.525L166.424 175.467L166.424 175.409L166.424 175.351L166.424 175.292L166.424 175.234L166.424 175.176L166.424 175.117L166.424 175.059L166.424 175L166.424 174.942L166.424 174.883L166.424 174.825L166.424 174.766L166.424 174.708L166.424 174.649L166.424 174.59L166.424 174.532L166.424 174.473L166.424 174.414L166.424 174.355L166.424 174.297L166.424 174.238L166.424 174.179L166.424 174.12L166.424 174.061L166.424 174.002L166.424 173.943L166.424 173.884L166.424 173.825L166.424 173.766L166.424 173.707L166.424 173.648L166.424 173.589L166.424 173.53L166.424 173.471L166.424 173.412L166.424 173.352L166.424 173.293L166.424 173.234L166.424 173.174L166.424 173.115L166.424 173.056L166.424 172.996L166.424 172.937L166.424 172.878L166.424 172.818L166.424 172.759L166.424 172.699L166.424 172.64L166.424 172.58L166.424 172.52L166.424 172.461L166.424 172.401L166.424 172.341L166.424 172.282L166.424 172.222L166.424 172.162L166.424 172.102L166.424 172.043L166.424 171.983L166.424 171.923L166.424 171.863L166.424 171.803L166.424 171.743L166.424 171.683L166.424 171.623L166.424 171.563L166.424 171.503L166.424 171.443L166.424 171.383L166.424 171.323L166.424 171.263L166.424 171.203L166.424 171.143L166.424 171.083L166.424 171.022L166.424 170.962L166.424 170.902L166.424 170.842L166.424 170.781L166.424 170.721L166.424 170.661L166.424 170.6L166.424 170.54L166.424 170.479L166.424 170.419L166.424 170.358L166.424 170.298L166.424 170.237L166.424 170.177L166.424 170.116L166.424 170.056L166.424 169.995L166.424 169.934L166.424 169.874L166.424 169.813L166.424 169.752L166.424 169.692L166.424 169.631L166.424 169.57L166.424 169.509L166.424 169.449L166.424 169.388L166.424 169.327L166.424 169.266L166.424 169.205L166.424 169.144L166.424 169.083L166.424 169.022L166.424 168.961L166.424 168.9L166.424 168.839L166.424 168.778L166.424 168.717L166.424 168.656L166.424 168.595L166.424 168.534L166.424 168.473L166.424 168.411L166.424 168.35L166.424 168.289L166.424 168.228L166.424 168.166L166.424 168.105L166.424 168.044L166.424 167.982L166.424 167.921L166.424 167.86L166.424 167.798L166.424 167.737L166.424 167.675L166.424 167.614L166.424 167.553L166.424 167.491L166.424 167.43L166.424 167.368L166.424 167.306L166.424 167.245L166.424 167.183L166.424 167.122L166.424 167.06L166.424 166.998L166.424 166.937L166.424 166.875L166.424 166.813L166.424 166.752L166.424 166.69L166.424 166.628L166.424 166.566L166.424 166.504L166.424 166.443L166.424 166.381L166.424 166.319L166.424 166.257L166.424 166.195L166.424 166.133L166.424 166.071L166.424 166.009L166.424 165.947L166.424 165.885L166.424 165.823L166.424 165.761L166.424 165.699L166.424 165.637L166.424 165.575L166.424 165.513L166.424 165.451L166.424 165.388L166.424 165.326L166.424 165.264L166.424 165.202L166.424 165.14L166.424 165.077L166.424 165.015L166.424 164.953L166.424 164.891L166.424 164.828L166.424 164.766L166.424 164.704L166.424 164.641L166.424 164.579L166.424 164.517L166.424 164.454L166.424 164.392L166.424 164.329L166.424 164.267L166.424 164.204L166.424 164.142L166.424 164.079L166.424 164.017L166.424 163.954L166.424 163.892L166.424 163.829L166.424 163.766L166.424 163.704L166.424 163.641L166.424 163.579L166.424 163.516L166.424 163.453L166.424 163.391L166.424 163.328L166.424 163.265L166.424 163.202L166.424 163.14L166.424 163.077L166.424 163.014L166.424 162.951L166.424 162.888L166.424 162.826L166.424 162.763L166.424 162.7L166.424 162.637L166.424 162.574L166.424 162.511L166.424 162.448L166.424 162.385L166.424 162.322L166.424 162.259L166.424 162.196L166.424 162.133L166.424 162.07L166.424 162.007L166.424 161.944L166.424 161.881L166.424 161.818L166.424 161.755L166.424 161.692L166.424 161.629L166.424 161.566L166.424 161.503L166.424 161.439L166.424 161.376L166.424 161.313L166.424 161.25L166.424 161.187L166.424 161.123L166.424 161.06L166.424 160.997L166.424 160.934L166.424 160.87L166.424 160.807L166.424 160.744L166.424 160.68L166.424 160.617L166.424 160.554L166.424 160.49L166.424 160.427L166.424 160.364L166.424 160.3L166.424 160.237L166.424 160.173L166.424 160.11L166.424 160.046L166.424 159.983L166.424 159.92L166.424 159.856L166.424 159.793L166.424 159.729L166.424 159.666L166.424 159.602L166.424 159.538L166.424 159.475L166.424 159.411L166.424 159.348L166.424 159.284L166.424 159.221L166.424 159.157L166.424 159.093L166.424 159.03L166.424 158.966L166.424 158.902L166.424 158.839L166.424 158.775L166.424 158.711L166.424 158.648L166.424 158.584L166.424 158.52L166.424 158.456L166.424 158.393L166.424 158.329L166.424 158.265L166.424 158.201L166.424 158.137L166.424 158.074L166.424 158.01L166.424 157.946L166.424 157.882L166.424 157.818L166.424 157.754L166.424 157.691L166.424 157.627L166.424 157.563L166.424 157.499L166.424 157.435L166.424 157.371L166.424 157.307L166.424 157.243L166.424 157.179L166.424 157.115L166.424 157.051L166.424 156.987L166.424 156.923L166.424 156.859L166.424 156.795L166.424 156.731L166.424 156.667L166.424 156.603C166.424 146.762 166.571 137.755 166.719 130.929C166.792 127.558 166.865 124.714 166.92 122.563C166.966 120.774 166.999 119.466 167.01 118.734C169.237 118.322 172.587 118.26 176.463 118.507C180.56 118.769 185.202 119.373 189.642 120.248C194.086 121.125 198.309 122.269 201.577 123.606C203.212 124.274 204.591 124.985 205.636 125.723C206.647 126.438 207.3 127.149 207.598 127.834L207.598 156.603L207.598 191.374C207.537 191.88 207.069 192.493 206.015 193.172C204.976 193.842 203.492 194.496 201.678 195.118C198.056 196.36 193.22 197.44 188.256 198.272C183.294 199.103 178.224 199.684 174.142 199.933C172.1 200.058 170.314 200.099 168.916 200.048C168.216 200.023 167.621 199.975 167.144 199.904C166.846 199.86 166.608 199.81 166.424 199.756L166.424 199.749L166.424 199.722L166.424 199.695L166.424 199.669L166.424 199.642L166.424 199.616L166.424 199.589L166.424 199.563L166.424 199.536L166.424 199.51L166.424 199.484L166.424 199.458L166.424 199.432L166.424 199.406L166.424 199.38L166.424 199.354L166.424 199.328L166.424 199.302L166.424 199.277L166.424 199.251L166.424 199.225L166.424 199.2L166.424 199.174L166.424 199.149L166.424 199.124L166.424 199.098L166.424 199.073L166.424 199.048L166.424 199.023L166.424 198.998L166.424 198.973L166.424 198.948L166.424 198.923L166.424 198.898L166.424 198.873L166.424 198.848L166.424 198.824L166.424 198.799L166.424 198.774L166.424 198.75L166.424 198.725L166.424 198.701L166.424 198.677L166.424 198.652L166.424 198.628L166.424 198.604L166.424 198.579L166.424 198.555L166.424 198.531L166.424 198.507L166.424 198.483L166.424 198.459L166.424 198.435L166.424 198.411L166.424 198.387L166.424 198.364L166.424 198.34L166.424 198.316L166.424 198.293L166.424 198.269L166.424 198.245L166.424 198.222L166.424 198.198L166.424 198.175L166.424 198.152L166.424 198.128L166.424 198.105L166.424 198.082L166.424 198.058L166.424 198.035L166.424 198.012L166.424 197.989L166.424 197.966L166.424 197.943L166.424 197.92L166.424 197.897L166.424 197.874L166.424 197.851L166.424 197.828L166.424 197.805L166.424 197.783L166.424 197.76L166.424 197.737L166.424 197.715L166.424 197.692L166.424 197.669L166.424 197.647L166.424 197.624L166.424 197.602L166.424 197.579L166.424 197.557L166.424 197.534L166.424 197.512L166.424 197.49L166.424 197.467L166.424 197.445L166.424 197.423L166.424 197.401L166.424 197.378L166.424 197.356L166.424 197.334L166.424 197.312L166.424 197.29L166.424 197.268L166.424 197.246L166.424 197.224L166.424 197.202L166.424 197.18L166.424 197.158L166.424 197.136L166.424 197.114L166.424 197.092L166.424 197.07L166.424 197.049L166.424 197.027L166.424 197.005L166.424 196.983L166.424 196.962L166.424 196.94L166.424 196.918L166.424 196.897L166.424 196.875L166.424 196.853L166.424 196.832L166.424 196.81L166.424 196.789L166.424 196.767L166.424 196.746L166.424 196.724L166.424 196.703L166.424 196.681L166.424 196.66L166.424 196.638L166.424 196.617L166.424 196.595L166.424 196.574L166.424 196.553L166.424 196.531L166.424 196.51L166.424 196.489L166.424 196.467L166.424 196.446L166.424 196.425L166.424 196.403L166.424 196.382L166.424 196.361L166.424 196.34L166.424 196.318L166.424 196.297L166.424 196.276L166.424 196.255L166.424 196.234L166.424 196.212L166.424 196.191L166.424 196.17L166.424 196.149L166.424 196.128L166.424 196.107L166.424 196.085L166.424 196.064L166.424 196.043L166.424 196.022L166.424 196.001L166.424 195.98L166.424 195.959L166.424 195.938L166.424 195.917L166.424 195.895L166.424 195.874L166.424 195.853L166.424 195.832L166.424 195.811L166.424 195.79L166.424 195.769L166.424 195.748L166.424 195.727L166.424 195.706L166.424 195.685L166.424 195.663L166.424 195.642L166.424 195.621L166.424 195.6L166.424 195.579L166.424 195.558L166.424 195.537L166.424 195.516L166.424 195.495L166.424 195.474L166.424 195.452L166.424 195.431L166.424 195.41L166.424 195.389L166.424 195.368L166.424 195.347L166.424 195.326L166.424 195.304L166.424 195.283L166.424 195.262L166.424 195.241L166.424 195.22L166.424 195.199L166.424 195.177L166.424 195.156L166.424 195.135L166.424 195.114L166.424 195.092L166.424 195.071L166.424 195.05L166.424 195.028L166.424 195.007L166.424 194.986L166.424 194.965L166.424 194.943L166.424 194.922L166.424 194.9L166.424 194.879L166.424 194.858L166.424 194.836L166.424 194.815L166.424 194.793L166.424 194.772L166.424 194.75L166.424 194.729L166.424 194.707L166.424 194.686L166.424 194.664L166.424 194.643L166.424 194.621L166.424 194.599L166.424 194.578L166.424 194.556L166.424 194.535L166.424 194.513L166.424 194.491L166.424 194.469L166.424 194.448L166.424 194.426L166.424 194.404L166.424 194.382L166.424 194.36L166.424 194.338L166.424 194.317L166.424 194.295L166.424 194.273L166.424 194.251L166.424 194.229L166.424 194.207L166.424 194.185L166.424 194.162L166.424 194.14L166.424 194.118L166.424 194.096L166.424 194.074L166.424 194.052L166.424 194.029L166.424 194.007L166.424 193.985L166.424 193.962L166.424 193.94L166.424 193.918L166.424 193.895L166.424 193.873L166.424 193.85L166.424 193.828L166.424 193.805L166.424 193.782L166.424 193.76L166.424 193.737L166.424 193.714L166.424 193.692L166.424 193.669L166.424 193.646L166.424 193.623L166.424 193.6L166.424 193.577L166.424 193.554L166.424 193.531L166.424 193.508L166.424 193.485L166.424 193.462L166.424 193.439L166.424 193.416L166.424 193.393L166.424 193.369L166.424 193.346L166.424 193.323L166.424 193.299L166.424 193.276L166.424 193.252L166.424 193.229L166.424 193.205L166.424 193.182L166.424 193.158L166.424 193.134L166.424 193.111L166.424 193.087L166.424 193.063L166.424 193.039L166.424 193.015L166.424 192.991L166.424 192.967L166.424 192.943L166.424 192.919L166.424 192.895L166.424 192.871L166.424 192.846L166.424 192.822L166.424 192.798L166.424 192.773L166.424 192.749L166.424 192.724L166.424 192.7L166.424 192.675L166.424 192.65L166.424 192.626L166.424 192.601L166.424 192.576L166.424 192.551L166.424 192.526L166.424 192.501L166.424 192.476L166.424 192.451L166.424 192.426L166.424 192.401L166.424 192.376L166.424 192.35L166.424 192.325L166.424 192.3L166.424 192.274L166.424 192.249L166.424 192.223L166.424 192.197L166.424 192.172L166.424 192.146L166.424 192.12L166.424 192.094L166.424 192.068L166.424 192.042L166.424 192.016L166.424 191.99L166.424 191.964L166.424 191.938L166.424 191.911L166.424 191.885L166.424 191.858L166.424 191.832L166.424 191.805L166.424 191.779L166.424 191.752L166.424 191.725L166.424 191.698L166.424 191.671L166.424 191.645L166.424 191.618L166.424 191.59L166.424 191.563L166.424 191.536L166.424 191.509L166.424 191.481L166.424 191.454L166.424 191.426L166.424 191.399L166.424 191.371L166.424 191.343L166.424 191.316L166.424 191.288L166.424 191.26L166.424 191.232L166.424 191.204L166.424 191.176L166.424 191.147L166.424 191.119L166.424 191.091L166.424 191.062L166.424 191.034L166.424 191.005L166.424 190.977L166.424 190.948L166.424 190.919L166.424 190.89L166.424 190.861L166.424 190.832L166.424 190.803L166.424 190.774L166.424 190.745L166.424 190.715L166.424 190.686L166.424 190.656L166.424 190.627L166.424 190.597L166.424 190.567L166.424 190.537L166.424 190.507L166.424 190.477L166.424 190.447L166.424 190.417L166.424 190.387L166.424 190.357L166.424 190.326L166.424 190.296L166.424 190.265L166.424 190.234L166.424 190.204L166.424 190.173L166.424 190.142L166.424 190.111L166.424 190.08L166.424 190.049L166.424 190.017L166.424 189.986L166.424 189.955L166.424 189.923L166.424 189.891L166.424 189.86L166.424 189.828L166.424 189.796L166.424 189.764L166.424 189.732L166.424 189.7L166.424 189.668L166.424 189.635L166.424 189.603L166.424 189.57L166.424 189.538L166.424 189.505L166.424 189.472L166.424 189.439L166.424 189.406L166.424 189.373L166.424 189.34L166.424 189.307L166.424 189.273L166.424 189.24L166.424 189.206L166.424 189.173L166.424 189.139L166.424 189.105L166.424 189.071L166.424 189.037L166.424 189.003L166.424 188.969L166.424 188.934L166.424 188.9L166.424 188.865L166.424 188.831L166.424 188.796L166.424 188.761L166.424 188.726L166.424 188.691L166.424 188.656L166.424 188.621L166.424 188.585L166.424 188.55L166.424 188.514L166.424 188.478L166.424 188.443L166.424 188.407L166.424 188.371L166.424 188.335L166.424 188.298L166.424 188.262L166.424 188.226L166.424 188.189L166.424 188.152L166.424 188.116L166.424 188.079L166.424 188.042L166.424 188.005L166.424 187.968L166.424 187.93L166.424 187.893L166.424 187.855L166.424 187.818L166.424 187.78L166.424 187.742L166.424 187.704L166.424 187.666L166.424 187.628L166.424 187.59L166.424 187.551L166.424 187.513L166.424 187.474L166.424 187.435L166.424 187.397L166.424 187.358L166.424 187.318L166.424 187.279L166.424 187.24L166.424 187.2L166.424 187.161L166.424 187.121L166.424 187.081L166.424 187.041L166.424 187.001L166.424 186.961L166.424 186.921L166.424 186.88L166.424 186.84L166.424 186.799Z" fill="white" stroke="#1F50FF"/>
<path d="M79.88 87C79.144 87 78.264 86.728 77.24 86.184C76.248 85.64 75.368 85 74.6 84.264C73.864 83.528 73.496 82.92 73.496 82.44C73.496 81.608 74.28 77.368 75.848 69.72C76.04 68.824 76.344 67.304 76.76 65.16C77.208 62.984 77.512 61.416 77.672 60.456L75.896 60.744C74.904 59.816 74.408 58.648 74.408 57.24C74.408 56.248 74.68 55.224 75.224 54.168C77.816 53.496 80.44 53.16 83.096 53.16C85.912 53.16 88.52 53.528 90.92 54.264C93.352 55 95.32 56.136 96.824 57.672C98.328 59.176 99.08 61.064 99.08 63.336C99.08 65.352 98.408 67.272 97.064 69.096C95.752 70.888 93.832 72.376 91.304 73.56C88.776 74.744 85.8 75.464 82.376 75.72C82.152 77.256 81.976 78.648 81.848 79.896C81.56 82.328 81.288 84.12 81.032 85.272C80.776 86.424 80.392 87 79.88 87ZM83.096 69.768C85.88 69.224 88.024 68.392 89.528 67.272C91.064 66.12 91.832 64.84 91.832 63.432C91.832 62.472 91.352 61.672 90.392 61.032C89.464 60.36 88.2 60.024 86.6 60.024C86.024 60.024 85.4 60.072 84.728 60.168L83.96 64.68C83.512 67.208 83.224 68.904 83.096 69.768ZM120.488 75.048C120.52 75.56 120.632 76.856 120.824 78.936C121.048 80.984 121.16 82.696 121.16 84.072C121.16 85.864 120.952 86.824 120.536 86.952C120.408 86.984 120.2 87 119.912 87C119.208 87 118.328 86.84 117.272 86.52C116.248 86.168 115.32 85.736 114.488 85.224C113.688 84.712 113.224 84.216 113.096 83.736C112.968 83.256 112.904 81.24 112.904 77.688C109.448 78.104 107.176 78.36 106.088 78.456C105.224 80.984 104.232 83.752 103.112 86.76C102.248 86.952 101.448 87.048 100.712 87.048C99.4316 87.048 98.3436 86.744 97.4476 86.136C96.5836 85.496 96.0076 84.536 95.7196 83.256L96.6796 81.096C100.2 73.256 103.24 66.68 105.8 61.368C108.392 56.056 110.072 53.4 110.84 53.4C111.448 53.4 112.328 53.624 113.48 54.072C114.664 54.52 115.72 55.064 116.648 55.704C117.608 56.344 118.152 56.92 118.28 57.432C118.504 58.328 118.808 60.2 119.192 63.048C119.576 65.896 119.88 68.648 120.104 71.304L120.488 75.048ZM112.76 60.888C111.352 64.216 109.96 67.784 108.584 71.592C110.056 71.496 111.512 71.352 112.952 71.16C112.952 66.744 112.888 63.32 112.76 60.888ZM146.92 82.344C146.248 83.016 145.176 83.736 143.704 84.504C142.264 85.272 140.68 85.928 138.952 86.472C137.256 86.984 135.672 87.24 134.2 87.24C133.08 87.24 131.752 86.728 130.216 85.704C128.68 84.648 127.352 83.4 126.232 81.96C125.144 80.52 124.6 79.24 124.6 78.12C124.632 74.696 125.208 71.016 126.328 67.08C127.48 63.144 129.192 59.8 131.464 57.048C133.768 54.296 136.536 52.92 139.768 52.92C141.464 52.92 143.032 53.4 144.472 54.36C145.944 55.32 147.096 56.504 147.927 57.912C148.76 59.32 149.176 60.648 149.176 61.896C149.208 63.208 148.76 64.216 147.832 64.92C146.904 65.592 145.736 65.928 144.328 65.928C143.304 65.928 142.28 65.736 141.256 65.352C141.288 64.776 141.304 63.96 141.304 62.904C141.304 61.72 141.208 60.84 141.016 60.264C140.824 59.688 140.456 59.4 139.912 59.4C138.824 59.4 137.704 60.52 136.552 62.76C135.432 65 134.472 67.752 133.672 71.016C132.904 74.28 132.488 77.272 132.424 79.992C134.536 79.608 136.472 78.984 138.232 78.12C140.024 77.224 141.592 76.2 142.936 75.048C144.376 75.4 145.48 76.056 146.248 77.016C147.048 77.944 147.448 78.984 147.448 80.136C147.448 80.84 147.272 81.576 146.92 82.344ZM157.186 87C156.45 87 155.57 86.744 154.546 86.232C153.554 85.688 152.674 85.048 151.906 84.312C151.17 83.576 150.802 82.968 150.802 82.488C150.77 81.976 150.914 80.904 151.234 79.272C151.586 77.608 151.81 76.536 151.906 76.056C152.034 75.416 152.274 74.248 152.626 72.552C152.978 70.824 153.266 69.224 153.49 67.752L153.874 65.496C154.482 61.912 155.042 59 155.554 56.76C156.098 54.52 156.642 53.4 157.186 53.4C157.794 53.4 158.61 53.672 159.634 54.216C160.69 54.76 161.602 55.4 162.37 56.136C163.17 56.872 163.57 57.512 163.57 58.056C163.57 58.344 163.266 59.624 162.658 61.896C161.538 65.928 160.706 69.448 160.162 72.456C159.842 74.344 159.506 76.824 159.154 79.896C158.834 82.52 158.546 84.36 158.29 85.416C158.066 86.472 157.698 87 157.186 87ZM188.155 53.4C188.763 53.752 189.211 54.248 189.499 54.888C189.819 55.496 189.979 56.168 189.979 56.904C189.979 57.544 189.851 58.184 189.595 58.824C189.339 59.464 189.003 59.992 188.587 60.408C184.939 60.472 181.499 60.632 178.267 60.888C178.107 61.56 177.771 63.048 177.259 65.352C177.195 65.64 176.987 66.648 176.635 68.376C180.059 68.088 182.763 67.704 184.747 67.224C185.387 67.608 185.867 68.12 186.187 68.76C186.539 69.368 186.715 70.04 186.715 70.776C186.715 71.448 186.571 72.088 186.283 72.696C186.027 73.272 185.659 73.736 185.179 74.088C184.571 74.152 183.963 74.2 183.355 74.232C182.779 74.264 182.219 74.296 181.675 74.328L175.675 74.76C175.419 76.392 175.163 78.328 174.907 80.568C174.619 82.968 174.363 84.648 174.139 85.608C173.915 86.536 173.547 87 173.035 87C172.235 87 171.323 86.728 170.299 86.184C169.307 85.608 168.443 84.952 167.707 84.216C167.003 83.448 166.651 82.824 166.651 82.344C166.651 81.864 166.811 80.808 167.131 79.176C167.483 77.544 167.867 75.784 168.283 73.896C169.723 67.688 170.571 63.432 170.827 61.128L168.811 61.272C168.203 60.952 167.707 60.488 167.323 59.88C166.971 59.24 166.795 58.552 166.795 57.816C166.795 56.536 167.291 55.4 168.283 54.408C172.667 54.344 176.475 54.248 179.707 54.12C182.971 53.992 185.787 53.752 188.155 53.4ZM195.576 87C194.84 87 193.96 86.744 192.936 86.232C191.944 85.688 191.064 85.048 190.296 84.312C189.56 83.576 189.192 82.968 189.192 82.488C189.16 81.976 189.304 80.904 189.624 79.272C189.976 77.608 190.2 76.536 190.296 76.056C190.424 75.416 190.664 74.248 191.016 72.552C191.368 70.824 191.656 69.224 191.88 67.752L192.264 65.496C192.872 61.912 193.432 59 193.944 56.76C194.488 54.52 195.032 53.4 195.576 53.4C196.184 53.4 197 53.672 198.024 54.216C199.08 54.76 199.992 55.4 200.76 56.136C201.56 56.872 201.96 57.512 201.96 58.056C201.96 58.344 201.656 59.624 201.048 61.896C199.928 65.928 199.096 69.448 198.552 72.456C198.232 74.344 197.896 76.824 197.544 79.896C197.224 82.52 196.936 84.36 196.68 85.416C196.456 86.472 196.088 87 195.576 87ZM225.154 82.344C224.482 83.016 223.41 83.736 221.938 84.504C220.498 85.272 218.914 85.928 217.186 86.472C215.49 86.984 213.906 87.24 212.434 87.24C211.314 87.24 209.986 86.728 208.45 85.704C206.914 84.648 205.586 83.4 204.466 81.96C203.378 80.52 202.834 79.24 202.834 78.12C202.866 74.696 203.442 71.016 204.562 67.08C205.714 63.144 207.426 59.8 209.698 57.048C212.002 54.296 214.77 52.92 218.002 52.92C219.698 52.92 221.266 53.4 222.706 54.36C224.178 55.32 225.33 56.504 226.162 57.912C226.994 59.32 227.41 60.648 227.41 61.896C227.442 63.208 226.994 64.216 226.066 64.92C225.138 65.592 223.97 65.928 222.562 65.928C221.538 65.928 220.514 65.736 219.49 65.352C219.522 64.776 219.538 63.96 219.538 62.904C219.538 61.72 219.442 60.84 219.25 60.264C219.058 59.688 218.69 59.4 218.146 59.4C217.058 59.4 215.938 60.52 214.786 62.76C213.666 65 212.706 67.752 211.906 71.016C211.138 74.28 210.722 77.272 210.658 79.992C212.77 79.608 214.706 78.984 216.466 78.12C218.258 77.224 219.826 76.2 221.17 75.048C222.61 75.4 223.714 76.056 224.482 77.016C225.282 77.944 225.682 78.984 225.682 80.136C225.682 80.84 225.506 81.576 225.154 82.344Z" fill="white"/>
<path d="M115.432 229.4C115.944 229.4 116.648 229.688 117.544 230.264C118.44 230.84 119.24 231.512 119.944 232.28C120.648 233.048 121 233.656 121 234.104C120.968 234.936 120.424 237.48 119.368 241.736L118.36 246.056L117.88 248.504C117.304 251.416 116.824 253.688 116.44 255.32C116.088 256.952 115.752 258.04 115.432 258.584C115.048 259.256 114.344 259.944 113.32 260.648C112.296 261.32 111.144 261.88 109.864 262.328C108.616 262.776 107.432 263 106.312 263C105.16 263 103.8 262.52 102.232 261.56C100.696 260.568 99.368 259.304 98.248 257.768C97.16 256.232 96.616 254.664 96.616 253.064C96.616 251.56 97.112 250.376 98.104 249.512C99.128 248.616 100.296 248.168 101.608 248.168C102.792 248.168 103.768 248.488 104.536 249.128C104.504 249.448 104.488 249.912 104.488 250.52C104.488 251.672 104.6 252.776 104.824 253.832C105.048 254.856 105.352 255.672 105.736 256.28C106.12 256.888 106.504 257.192 106.888 257.192C107.688 257.192 108.456 256.136 109.192 254.024C109.96 251.88 110.632 249.224 111.208 246.056C111.432 244.84 111.704 243.48 112.024 241.976C112.568 239.416 112.904 237.56 113.032 236.408C111.624 236.6 110.488 236.728 109.624 236.792C109.272 236.824 108.536 236.904 107.416 237.032C106.296 237.128 105.288 237.272 104.392 237.464C103.688 237.144 103.128 236.648 102.712 235.976C102.328 235.272 102.136 234.504 102.136 233.672C102.136 232.584 102.456 231.608 103.096 230.744C104.984 230.264 107.048 229.928 109.288 229.736C111.56 229.512 113.608 229.4 115.432 229.4ZM148.12 230.696C148.504 233.032 148.696 235.288 148.696 237.464C148.696 242.232 147.928 246.584 146.392 250.52C144.856 254.456 142.856 257.56 140.392 259.832C137.928 262.104 135.416 263.24 132.856 263.24C131.576 263.24 130.088 262.776 128.392 261.848C126.728 260.888 125.288 259.752 124.072 258.44C122.856 257.096 122.248 255.912 122.248 254.888C122.248 252.648 122.632 249.048 123.4 244.088C124.168 239.128 125.08 234.824 126.136 231.176C127.192 230.664 128.296 230.408 129.448 230.408C130.664 230.408 131.72 230.744 132.616 231.416C133.512 232.056 134.12 232.968 134.44 234.152C133.512 236.296 132.6 239.32 131.704 243.224C130.84 247.128 130.408 250.312 130.408 252.776C130.408 255.176 130.872 256.376 131.8 256.376C133.176 256.376 134.52 255.496 135.832 253.736C137.144 251.944 138.216 249.64 139.048 246.824C139.88 243.976 140.296 241.096 140.296 238.184C140.296 236.008 140.04 233.96 139.528 232.04C141.128 230.28 142.824 229.4 144.616 229.4C145.864 229.4 147.032 229.832 148.12 230.696ZM155.364 228.92C159.236 229.24 162.82 230.2 166.116 231.8C169.412 233.4 172.02 235.416 173.94 237.848C175.86 240.248 176.82 242.776 176.82 245.432C176.82 247.768 175.796 250.344 173.748 253.16C171.7 255.976 169.204 258.36 166.26 260.312C163.348 262.264 160.692 263.24 158.292 263.24C157.492 263.24 156.468 262.84 155.22 262.04C154.004 261.24 152.932 260.328 152.004 259.304C151.076 258.248 150.612 257.416 150.612 256.808C150.612 256.264 150.932 254.744 151.572 252.248C152.212 249.656 152.74 247.32 153.156 245.24C153.316 244.44 153.668 243.032 154.212 241.016C154.276 240.728 154.436 240.152 154.692 239.288C154.948 238.392 155.14 237.576 155.268 236.84L153.3 236.744C152.788 235.72 152.532 234.696 152.532 233.672C152.532 232.712 152.772 231.832 153.252 231.032C153.732 230.2 154.436 229.496 155.364 228.92ZM158.292 256.952C161.492 255.288 164.148 253.256 166.26 250.856C168.404 248.456 169.476 246.2 169.476 244.088C169.476 242.84 168.724 241.64 167.22 240.488C165.748 239.336 164.052 238.568 162.132 238.184C161.748 240.136 161.172 242.936 160.404 246.584C159.444 251.128 158.74 254.584 158.292 256.952ZM191.301 228.92C193.637 228.92 195.845 229.48 197.925 230.6C200.037 231.72 201.717 233.208 202.965 235.064C204.245 236.888 204.885 238.792 204.885 240.776C204.885 243.88 204.053 247.208 202.389 250.76C200.725 254.28 198.613 257.24 196.053 259.64C193.525 262.04 191.029 263.24 188.565 263.24C187.285 263.24 185.845 262.712 184.245 261.656C182.677 260.568 181.333 259.288 180.213 257.816C179.093 256.312 178.533 254.984 178.533 253.832C178.533 252.008 179.077 248.872 180.165 244.424C181.253 239.944 182.261 236.648 183.189 234.536C184.245 234.216 185.237 234.056 186.165 234.056C186.805 234.056 187.317 234.12 187.701 234.248C187.637 233.064 187.925 231.976 188.565 230.984C189.205 229.992 190.117 229.304 191.301 228.92ZM186.357 256.664C189.429 255.544 192.005 253.4 194.085 250.232C196.165 247.032 197.637 243.528 198.501 239.72C197.605 239.08 196.437 238.552 194.997 238.136C193.589 237.72 192.069 237.496 190.437 237.464C190.501 237.784 190.565 238.264 190.629 238.904C187.685 244.408 186.261 250.328 186.357 256.664Z" fill="white"/>
</svg>
